<svg id="Layer_1" data-name="Layer 1" xmlns="http://www.w3.org/2000/svg" viewBox="0 0 202.93 383.26"><path d="M505.61,308c1.28.4,2.55.85,3.85,1.2,19.26,5.21,29.32,24.34,22.53,43.07-1.23,3.39-2.89,6.61-4.26,9.71,5,5.15,10.23,10.13,14.95,15.57,10.79,12.42,17.81,26.58,19.48,43.23,1.8,18-4.66,32.45-18.23,44a5.62,5.62,0,0,1-3.37,1q-40.23.09-80.46,0A6.82,6.82,0,0,1,456,463.9c-19.56-18.42-23.35-44.47-9.93-68.25.26.18.64.29.75.52,6.76,13.86,18.12,23.65,29.63,33.24a11.1,11.1,0,0,0,15.75-1.55c3.84-4.69,3.11-11.41-1.48-15.82-6.64-6.39-13.93-12.31-19.45-19.57-4-5.24-5.64-12.3-8.1-18.63-.3-.77.54-2.34,1.3-3.11,2.86-2.92,5.91-5.67,8.89-8.49-3.38-6.7-6.73-13.26-6.68-20.9.11-16.3,10.2-28.87,26.11-32.53.81-.19,1.6-.54,2.39-.81Z" transform="translate(-398.95 -308)"/><path d="M460.39,488.53h79.94c3.83,42.3,11.08,83.74,27.72,123.53H432.73C449.25,572.36,456.59,531,460.39,488.53Z" transform="translate(-398.95 -308)"/><path d="M500.41,691.25h-87.9c-9.41,0-13.71-4.21-13.56-13.74.11-6.45-.16-13.08,1.19-19.32a29.49,29.49,0,0,1,28.94-23.14q71.25-.19,142.51,0a30.18,30.18,0,0,1,30,28.18c.4,5.33.34,10.72.23,16.07-.15,7.52-4.78,11.93-12.36,11.94Q544.92,691.29,500.41,691.25Z" transform="translate(-398.95 -308)"/></svg>