<svg id="Layer_1" data-name="Layer 1" xmlns="http://www.w3.org/2000/svg" viewBox="0 0 248.45 374.39"><path d="M455.9,439.8c-6.12,0-11.72,0-17.31,0-9.52,0-15.35-4.75-16.19-13-.92-9,3.94-15.44,13.14-17.48l1.68-.35c-12.68-36.66-4.62-66.86,29.11-87.51,23.89-14.62,53.56-11.12,75.42,6.88,19.41,16,32.78,46.65,18.86,80.56,1.58.28,3.17.46,4.7.83,7.77,1.86,12.38,8.83,11.49,17.27-.8,7.55-6.49,12.6-14.51,12.82-3.12.08-6.24,0-9.36,0H543.8a8,8,0,0,0-.45,1.81c1,36,5,71.61,14.72,106.41a286,286,0,0,0,29.33,69.71,5.66,5.66,0,0,0,5.63,3.13c18.41.06,31.44,13.21,31.55,31.69,0,6.48,0,13,0,19.46,0,10.19-4.57,14.69-14.94,14.69H391.08c-9.7,0-15-5.26-14.89-15.05.07-8.47-.39-17,.69-25.39,1.87-14.43,14.47-25.11,28.95-25.35,3.17,0,4.8-1.16,6.38-3.83,19.73-33.5,31.7-69.7,38.12-107.9a430.51,430.51,0,0,0,5.57-65.9C455.91,442.3,455.9,441.32,455.9,439.8Z" transform="translate(-376.15 -312.31)"/></svg>