<svg id="Layer_1" data-name="Layer 1" xmlns="http://www.w3.org/2000/svg" viewBox="0 0 287.23 383.25"><path d="M522.83,308c.55,1.82,1.77,3.72,1.55,5.44-2.24,17.49,4.72,30.66,18.24,41.25,31.11,24.38,62,49,93.09,73.45,6.45,5.08,10,11.15,7.59,19.46a19.38,19.38,0,0,1-3.53,6.49c-4.65,5.85-9.47,11.58-14.36,17.24-8.51,9.84-21.29,12.39-32.87,6.51-4.44-2.25-8.79-4.71-13-7.33-7.6-4.68-15.8-6.44-24.38-4.27-16.16,4.08-30-.19-42.43-10.59a6.77,6.77,0,0,0-3.26-1.64L523,471.65c6.71,8.68,13.07,17.67,20.23,26s14.85,15.74,22.49,23.39c5.11,5.12,10.5,10,15.79,14.89a30.57,30.57,0,0,1,9.92,22.65c.21,11.47,0,23,0,34.42a19.6,19.6,0,0,1-.27,2.31H380.88a26.88,26.88,0,0,1-.27-2.76c.25-30.3.17-60.62.87-90.91.78-33.45,5.85-66.25,17.08-97.91a117.14,117.14,0,0,1,22.89-39.12c10.17-11.44,22.66-17.62,38.24-16.94,15.11.65,26.15-5.74,33-19.32,4.76-9.41,12.7-15.13,22.35-18.79,1.12-.43,2.19-1,3.29-1.52Z" transform="translate(-356.82 -308)"/><path d="M488.42,691.25H371c-12.09,0-17.41-8.51-12-19.27,7.33-14.71,14.78-29.36,22-44.13,2.83-5.81,7-8.52,13.57-8.51q93.91.13,187.81,0c6.33,0,10.61,2.45,13.41,8.16,7.35,15,14.91,29.86,22.34,44.8,5.15,10.37-.19,18.94-11.77,19Z" transform="translate(-356.82 -308)"/></svg>