<svg id="Layer_1" data-name="Layer 1" xmlns="http://www.w3.org/2000/svg" viewBox="0 0 409.11 408.74"><path d="M527.13,298.78c0-3.85,0-7.28,0-10.7-.11-7.77-5-13.18-11.94-13.22s-11.92,5.36-12,13.1c0,3.53,0,7.06,0,10.82h-9.71c-8.81,0-14.25,4.67-14.2,12.1s5.4,11.82,14,11.85h9.91c0,10,.12,19.28-.09,28.58a13.3,13.3,0,0,1-1.95,6.6c-7.2,11.17-14.64,22.18-22,33.26-.76,1.14-1.43,2.35-2.38,3.93a106.64,106.64,0,0,1,36.62,8.06c1.23.52,3.05,0,4.5-.42,7.15-2,14.2-4.32,21.41-6.06,4.42-1.07,9.05-1.3,14.13-2-6.15-9.27-11.54-18.47-18-26.84s-9.59-17.29-8.4-27.93c.62-5.6.11-11.31.11-17.21,4.14,0,7.71,0,11.28,0,7.36-.14,12.72-5.29,12.63-12.09C551,304,545.71,299,538.54,298.8,535,298.71,531.37,298.78,527.13,298.78Z" transform="translate(-310.49 -274.86)"/><path d="M380.26,683.6c-6.37-1.35-12.62-3-17.95-7.05a35.49,35.49,0,0,1-14.64-27.15c-.28-4.36,0-8.75,0-13.73h4.26c14.37,0,28.74.1,43.11,0,9.06-.09,14.87-8.64,11.38-16.58-2.21-5-6.29-7.33-11.77-7.32q-21.15,0-42.31,0h-5.19c.49-6.92.66-13.52,1.55-20,.34-2.54.06-4-1.67-5.93-7.56-8.2-15.64-16.07-22.19-25-19.05-26.08-18.5-53.33-1.81-80.14,13.92-22.37,34.1-35.73,61-37.75.53,0,1.07-.1,1.6-.1a4.63,4.63,0,0,1,.95.24c-2.6,5.51-5.43,10.88-7.74,16.48-10.83,26.26-9.31,52.28,2.76,77.61,4.08,8.57,9.83,16.36,15,24.4a5.34,5.34,0,0,0,3.7,2.24c9.17.19,18.35.1,28.25.1-.87-1.32-1.44-2.25-2.07-3.12-6.74-9.38-14-18.42-20.16-28.19-27.57-44,1.78-98.77,44.62-110.45,22-6,42.29-3.6,61.75,7.72,2.11,1.23,3.54.88,5.38-.23,13.24-7.93,27.64-12.1,43-10.83,35.71,3,67.38,29.46,72.74,62.46,4,24.38-3.08,46-18.29,65.16-4.44,5.6-8.93,11.16-14,17.48,8.18,0,15.58-.48,22.88.15,6.1.52,9.53-1.84,13-6.64,13-18.25,20.74-38.32,21.37-60.75.5-17.78-4.18-34.44-13-49.89l-2.14-3.8a63,63,0,0,1,25.21,4.87c24.87,10.59,41.29,28.91,48.8,54.92,1.23,4.27,1.45,8.83,2.13,13.25V529.5a8.21,8.21,0,0,0-.66,1.81c-1.45,10.2-5,19.69-11.5,27.61-7.58,9.21-15.83,17.87-23.94,26.63a6.6,6.6,0,0,0-1.89,6.27c.91,6.48,1.08,13.07,1.57,19.91h-5.3q-21.14,0-42.26,0c-4.6,0-8.35,1.64-10.8,5.57a11.33,11.33,0,0,0-.37,12.11,11.58,11.58,0,0,0,10.81,6.24c14.36.05,28.71,0,43.07,0h4.45c0,4.27.12,8,0,11.67-.45,11.95-5.07,21.8-14.72,29.15-5.32,4-11.55,5.71-17.9,7.11H519.19c12-3.48,19.49-11.77,24.38-22.86,7.17-16.27,8.74-33.26,6.36-50.71-1.63-12-5.06-23.38-12.18-33.33-12.25-17.11-32.8-17.33-44.95-.16A71.17,71.17,0,0,0,484,594.28a91.16,91.16,0,0,0-2.14,52.28c4,16.57,10.84,31.59,29.31,37Zm218.68-59.8a12,12,0,0,0-11.84-12,11.94,11.94,0,0,0-.27,23.88A12.12,12.12,0,0,0,598.94,623.8ZM443.11,635.63a11.94,11.94,0,1,0,.36-23.88,11.94,11.94,0,0,0-.36,23.88Z" transform="translate(-310.49 -274.86)"/><path d="M527.13,298.78c4.24,0,7.83-.07,11.41,0,7.17.18,12.42,5.19,12.51,11.83.09,6.8-5.27,11.95-12.63,12.09-3.57.06-7.14,0-11.28,0,0,5.9.51,11.61-.11,17.21-1.19,10.64,1.88,19.5,8.4,27.93s11.86,17.57,18,26.84c-5.08.67-9.71.9-14.13,2-7.21,1.74-14.26,4.08-21.41,6.06-1.45.41-3.27.94-4.5.42a106.64,106.64,0,0,0-36.62-8.06c1-1.58,1.62-2.79,2.38-3.93,7.34-11.08,14.78-22.09,22-33.26a13.3,13.3,0,0,0,1.95-6.6c.21-9.3.09-18.6.09-28.58h-9.91c-8.6,0-13.94-4.56-14-11.85s5.39-12.07,14.2-12.1h9.71c0-3.76,0-7.29,0-10.82.08-7.74,5.05-13.14,12-13.1s11.83,5.45,11.94,13.22C527.17,291.5,527.13,294.93,527.13,298.78Z" transform="translate(-310.49 -274.86)"/></svg>