<svg id="Layer_1" data-name="Layer 1" xmlns="http://www.w3.org/2000/svg" viewBox="0 0 512 512"><path d="M512.29,648.61c-47.84,0-95.68-.11-143.52.12-6.5,0-9.91-2.28-12.72-8.12q-47.74-99.23-95.94-198.26c-7.23-14.93-5.34-21,9.07-29.29q10-5.71,20.1-11.26c11.33-6.18,17.17-5.1,25.78,4.63,19.37,21.87,49.79,23.69,69.79,4.13,9.46-9.25,13.72-20.79,15-33.79,1.29-13.37,5.07-16.6,18.35-16.63q14.42,0,28.83,0c13.08,0,15.26,1.59,19.32,13.94,8.94,27.16,37.11,41.08,62.94,30.94,14.43-5.67,23.7-16.29,28.48-31,3.78-11.62,6.61-13.68,19-13.71,10.25,0,20.5-.13,30.75,0,10.81.18,15,4,16.51,14.7.68,4.64,1,9.39,2.19,13.9a47.27,47.27,0,0,0,79.55,21.18c2-2,3.66-4.18,5.61-6.15,7.11-7.2,12.95-8.1,21.8-3.28,7.68,4.18,15.31,8.46,22.94,12.74,12.54,7,14.79,14,8.54,26.91q-36.95,76.37-74,152.71c-7.62,15.75-15.4,31.43-22.69,47.34-2.57,5.62-5.92,7.83-12.2,7.8-47.83-.23-95.67-.13-143.5-.13Z" transform="translate(-256 -232.5)"/><path d="M512.28,680.59q84.86,0,169.71,0c16.61,0,21.62,5.2,21.49,22-.06,7.69.14,15.39,0,23.08-.17,12.54-6.56,18.81-19,18.81H338.67c-12.28,0-18.83-6.52-18.95-19-.08-8.34,0-16.67,0-25,0-14.32,5.4-19.92,19.62-19.94Q425.83,680.55,512.28,680.59Z" transform="translate(-256 -232.5)"/><path d="M511.63,344.87a56.19,56.19,0,1,1,56.23-56.16A56.29,56.29,0,0,1,511.63,344.87Z" transform="translate(-256 -232.5)"/></svg>