<svg id="Layer_1" data-name="Layer 1" xmlns="http://www.w3.org/2000/svg" viewBox="0 0 319.51 383.33"><path d="M602.91,308c6.77,2.68,9.35,7.62,9.26,14.9-.26,22.71,0,45.42-.12,68.12-.06,14.29-8.72,25.23-22.13,28.11a37,37,0,0,1-7.81.58q-81.79.06-163.6,0c-18.4,0-29.91-11.49-29.94-29.85,0-22.33.16-44.67-.11-67-.08-7.29,2.44-12.25,9.28-14.88h45.67c1.85,1.21,4.33,2,5.39,3.72,1.69,2.72,3.28,6,3.44,9.08.45,8.9.16,17.84.16,26.82h15.91c0-8.05.26-15.87-.08-23.67-.32-7.32,1.94-12.85,8.88-15.95h46.42c6.84,3.17,9.28,8.62,8.87,16-.35,6.33-.07,12.7-.07,19v4.55h15.91c0-8.26.3-16.23-.08-24.16-.35-7.34,2.24-12.51,9.07-15.4Z" transform="translate(-340.55 -308)"/><path d="M372.47,627.32c0-4-.06-7.58,0-11.19.3-16.6,12.07-28.35,28.7-28.69.5,0,1,0,1.5,0q97.71,0,195.43,0c14.8,0,26,8.14,29.1,21.43.91,4,.72,8.17.95,12.27.11,2,0,3.92,0,6.06a85.15,85.15,0,0,1,9.25.77,27.54,27.54,0,0,1,22.49,26.67c.21,8.1.15,16.22.05,24.33-.1,7.51-5,12.3-12.59,12.32-20.09.05-40.19,0-60.28,0H355.36c-10.49,0-14.71-4.23-14.72-14.74,0-6.36.26-12.74-.05-19.09-.89-18.51,14.26-30.93,29.1-30A26.28,26.28,0,0,0,372.47,627.32Z" transform="translate(-340.55 -308)"/><path d="M433.43,443.92H567.16a312.94,312.94,0,0,0,9.27,119.38H424.24A306.18,306.18,0,0,0,433.43,443.92Z" transform="translate(-340.55 -308)"/></svg>